<svg width="80" height="80" viewBox="0 0 80 80" fill="none" xmlns="http://www.w3.org/2000/svg">
<circle opacity="0.1" cx="40" cy="40" r="40" fill="#FFA149"/>
<g clip-path="url(#clip0_768_286)">
<path d="M51.96 33.6934C52.48 33.1734 52.48 32.3334 51.96 31.8134L48.1867 28.04C47.6667 27.52 46.8267 27.52 46.3067 28.04L40.32 34.0267L35.1333 28.84C34.0933 27.8 32.4 27.8 31.36 28.84L28.8267 31.3734C27.7867 32.4134 27.7867 34.1067 28.8267 35.1467L34.0133 40.3334L28 46.3467V52H33.6533L39.68 45.9734L44.8667 51.16C46.1333 52.4267 47.84 51.96 48.64 51.16L51.1733 48.6267C52.2133 47.5867 52.2133 45.8934 51.1733 44.8534L45.9867 39.6667L51.96 33.6934ZM30.72 33.2534L33.24 30.72L34.9333 32.4134L33.36 34L35.24 35.88L36.8267 34.2934L38.4267 35.8934L35.8933 38.4267L30.72 33.2534ZM45.6933 43.1734L44.1067 44.76L45.9867 46.64L47.5733 45.0534L49.2667 46.7467L46.7333 49.28L41.5467 44.0934L44.08 41.56L45.6933 43.1734ZM32.5467 49.3334H30.6667V47.4534L43.48 34.64L45.2133 36.3734L45.36 36.52L32.5467 49.3334ZM45.36 32.7467L47.24 30.8667L49.12 32.7467L47.24 34.6267L45.36 32.7467Z" fill="#FFA049"/>
</g>
<defs>
<clipPath id="clip0_768_286">
<rect width="32" height="32" fill="white" transform="translate(24 24)"/>
</clipPath>
</defs>
</svg>
