<svg width="80" height="80" viewBox="0 0 80 80" fill="none" xmlns="http://www.w3.org/2000/svg">
<circle opacity="0.1" cx="40" cy="40" r="40" fill="#FFA149"/>
<g clip-path="url(#clip0_768_232)">
<path d="M39.9867 26.6667C32.6267 26.6667 26.6667 32.6401 26.6667 40.0001C26.6667 47.3601 32.6267 53.3334 39.9867 53.3334C47.3601 53.3334 53.3334 47.3601 53.3334 40.0001C53.3334 32.6401 47.3601 26.6667 39.9867 26.6667ZM49.2267 34.6667H45.2934C44.8667 33.0001 44.2534 31.4001 43.4534 29.9201C45.9067 30.7601 47.9467 32.4667 49.2267 34.6667ZM40.0001 29.3867C41.1067 30.9867 41.9734 32.7601 42.5467 34.6667H37.4534C38.0267 32.7601 38.8934 30.9867 40.0001 29.3867ZM29.6801 42.6667C29.4667 41.8134 29.3334 40.9201 29.3334 40.0001C29.3334 39.0801 29.4667 38.1867 29.6801 37.3334H34.1867C34.0801 38.2134 34.0001 39.0934 34.0001 40.0001C34.0001 40.9067 34.0801 41.7867 34.1867 42.6667H29.6801ZM30.7734 45.3334H34.7067C35.1334 47.0001 35.7467 48.6001 36.5467 50.0801C34.0934 49.2401 32.0534 47.5467 30.7734 45.3334ZM34.7067 34.6667H30.7734C32.0534 32.4534 34.0934 30.7601 36.5467 29.9201C35.7467 31.4001 35.1334 33.0001 34.7067 34.6667ZM40.0001 50.6134C38.8934 49.0134 38.0267 47.2401 37.4534 45.3334H42.5467C41.9734 47.2401 41.1067 49.0134 40.0001 50.6134ZM43.1201 42.6667H36.8801C36.7601 41.7867 36.6667 40.9067 36.6667 40.0001C36.6667 39.0934 36.7601 38.2001 36.8801 37.3334H43.1201C43.2401 38.2001 43.3334 39.0934 43.3334 40.0001C43.3334 40.9067 43.2401 41.7867 43.1201 42.6667ZM43.4534 50.0801C44.2534 48.6001 44.8667 47.0001 45.2934 45.3334H49.2267C47.9467 47.5334 45.9067 49.2401 43.4534 50.0801ZM45.8134 42.6667C45.9201 41.7867 46.0001 40.9067 46.0001 40.0001C46.0001 39.0934 45.9201 38.2134 45.8134 37.3334H50.3201C50.5334 38.1867 50.6667 39.0801 50.6667 40.0001C50.6667 40.9201 50.5334 41.8134 50.3201 42.6667H45.8134Z" fill="#FFA049"/>
</g>
<defs>
<clipPath id="clip0_768_232">
<rect width="32" height="32" fill="white" transform="translate(24 24)"/>
</clipPath>
</defs>
</svg>
