<svg width="80" height="80" viewBox="0 0 80 80" fill="none" xmlns="http://www.w3.org/2000/svg">
<circle opacity="0.1" cx="40" cy="40" r="40" fill="#FFA149"/>
<g clip-path="url(#clip0_768_73)">
<path d="M44.6667 42.6667H43.6133L43.24 42.3067C44.5467 40.7867 45.3333 38.8133 45.3333 36.6667C45.3333 31.88 41.4533 28 36.6667 28C31.88 28 28 31.88 28 36.6667C28 41.4533 31.88 45.3333 36.6667 45.3333C38.8133 45.3333 40.7867 44.5467 42.3067 43.24L42.6667 43.6133V44.6667L49.3333 51.32L51.32 49.3333L44.6667 42.6667ZM36.6667 42.6667C33.3467 42.6667 30.6667 39.9867 30.6667 36.6667C30.6667 33.3467 33.3467 30.6667 36.6667 30.6667C39.9867 30.6667 42.6667 33.3467 42.6667 36.6667C42.6667 39.9867 39.9867 42.6667 36.6667 42.6667Z" fill="#FFA049"/>
</g>
<defs>
<clipPath id="clip0_768_73">
<rect width="32" height="32" fill="white" transform="translate(24 24)"/>
</clipPath>
</defs>
</svg>
