<svg width="80" height="80" viewBox="0 0 80 80" fill="none" xmlns="http://www.w3.org/2000/svg">
<circle opacity="0.1" cx="40" cy="40" r="40" fill="#FFA149"/>
<g clip-path="url(#clip0_768_30)">
<path d="M29.3333 31.9999H53.3333V29.3333H29.3333C27.8667 29.3333 26.6667 30.5333 26.6667 31.9999V46.6666H24V50.6666H42.6667V46.6666H29.3333V31.9999ZM54.6667 34.6666H46.6667C45.9333 34.6666 45.3333 35.2666 45.3333 35.9999V49.3333C45.3333 50.0666 45.9333 50.6666 46.6667 50.6666H54.6667C55.4 50.6666 56 50.0666 56 49.3333V35.9999C56 35.2666 55.4 34.6666 54.6667 34.6666ZM53.3333 46.6666H48V37.3333H53.3333V46.6666Z" fill="#FFA149"/>
</g>
<defs>
<clipPath id="clip0_768_30">
<rect width="32" height="32" fill="white" transform="translate(24 24)"/>
</clipPath>
</defs>
</svg>
